<svg width="140" height="60" viewBox="0 0 140 60" fill="none" xmlns="http://www.w3.org/2000/svg">
<path d="M28.274 42.042H18.516L15.318 60H0.558L10.972 0.959998H35.982C42.1593 0.959998 46.56 2.38133 49.184 5.224C51.0973 7.41066 52.054 10.1987 52.054 13.588C52.054 14.736 51.9447 15.9387 51.726 17.196L50.086 26.462C49.266 30.9993 46.8607 34.744 42.87 37.696C38.8793 40.5933 34.014 42.042 28.274 42.042ZM30.816 13.752H23.436L20.73 29.25H28.028C32.5107 29.25 35.1073 27.2547 35.818 23.264L36.392 19.902C36.5013 19.41 36.556 18.754 36.556 17.934C36.556 17.114 36.146 16.212 35.326 15.228C34.506 14.244 33.0027 13.752 30.816 13.752ZM78.4599 60L78.9519 47.126H65.2579L61.2399 60H45.5779L66.6519 0.959998H93.7119L94.0399 60H78.4599ZM75.0979 15.31L68.6199 36.138H79.3619L80.2639 15.31H75.0979ZM136.731 60H99.3392L109.753 0.959998H124.513L116.395 47.208H139.027L136.731 60Z" fill="white"/>
</svg>
